<?xml version="1.0" encoding="UTF-8"?>
<svg id="Livello_1" data-name="Livello 1" xmlns="http://www.w3.org/2000/svg" viewBox="0 0 20 20">
  <defs>
    <style>
      .cls-1 {
        fill: #7899d4;
      }

      .cls-2 {
        fill: #7d6167;
        stroke: #7899d4;
        stroke-miterlimit: 10;
      }

      .cls-3 {
        fill: #c1d1eb;
      }
    </style>
  </defs>
  <g>
    <path class="cls-3" d="M4.76,.5H15.24c2.35,0,4.26,1.91,4.26,4.26V15.24c0,2.35-1.91,4.26-4.26,4.26H4.76c-2.35,0-4.26-1.91-4.26-4.26V4.76C.5,2.41,2.41,.5,4.76,.5Z"/>
    <path class="cls-1" d="M15.24,1c2.07,0,3.76,1.69,3.76,3.76V15.24c0,2.07-1.69,3.76-3.76,3.76H4.76c-2.07,0-3.76-1.69-3.76-3.76V4.76c0-2.07,1.69-3.76,3.76-3.76H15.24m0-1H4.76C2.13,0,0,2.13,0,4.76V15.24c0,2.63,2.13,4.76,4.76,4.76H15.24c2.63,0,4.76-2.13,4.76-4.76V4.76c0-2.63-2.13-4.76-4.76-4.76h0Z"/>
  </g>
  <path class="cls-2" d="M15.22,6.22l-1.45-1.45c-.43-.43-1.13-.43-1.55,0l-1.45,1.45c-.43,.43-1.13,.43-1.55,0l-1.45-1.45c-.43-.43-1.13-.43-1.55,0l-1.45,1.45c-.43,.43-.43,1.13,0,1.55l1.45,1.45c.43,.43,.43,1.13,0,1.55l-1.45,1.45c-.43,.43-.43,1.13,0,1.55l1.45,1.45c.43,.43,1.13,.43,1.55,0l1.45-1.45c.43-.43,1.13-.43,1.55,0l1.45,1.45c.43,.43,1.13,.43,1.55,0l1.45-1.45c.43-.43,.43-1.13,0-1.55l-1.45-1.45c-.43-.43-.43-1.13,0-1.55l1.45-1.45c.43-.43,.43-1.13,0-1.55Z"/>
</svg>